<svg width="20" height="20" viewBox="0 0 20 20" fill="none" xmlns="http://www.w3.org/2000/svg">
<path d="M10 18.7598C8.26942 18.7598 6.57769 18.2466 5.13876 17.2851C3.69983 16.3237 2.57832 14.9571 1.91606 13.3582C1.25379 11.7594 1.08051 10.0001 1.41813 8.30273C1.75575 6.6054 2.58911 5.04629 3.81282 3.82259C5.03653 2.59888 6.59563 1.76552 8.29296 1.4279C9.9903 1.09028 11.7496 1.26356 13.3485 1.92582C14.9473 2.58809 16.3139 3.7096 17.2754 5.14853C18.2368 6.58746 18.75 8.27918 18.75 10.0098C18.75 12.3304 17.8281 14.556 16.1872 16.197C14.5462 17.8379 12.3206 18.7598 10 18.7598ZM10 2.50977C8.51664 2.50977 7.0666 2.94964 5.83323 3.77375C4.59986 4.59786 3.63856 5.7692 3.07091 7.13964C2.50325 8.51009 2.35473 10.0181 2.64411 11.4729C2.9335 12.9278 3.64781 14.2642 4.6967 15.3131C5.7456 16.362 7.08197 17.0763 8.53683 17.3657C9.99168 17.655 11.4997 17.5065 12.8701 16.9389C14.2406 16.3712 15.4119 15.4099 16.236 14.1765C17.0601 12.9432 17.5 11.4931 17.5 10.0098C17.5 8.02065 16.7098 6.11299 15.3033 4.70647C13.8968 3.29995 11.9891 2.50977 10 2.50977Z" fill="black"/>
<path d="M12.8688 13.7598L9.375 10.266V4.38477H10.625V9.74727L13.75 12.8785L12.8688 13.7598Z" fill="black"/>
</svg>
