<svg width="20" height="20" viewBox="0 0 20 20" fill="none" xmlns="http://www.w3.org/2000/svg">
<g clip-path="url(#clip0_72_571)">
<path d="M5.83333 15.0101C4.30916 15.3534 3.33333 15.8801 3.33333 16.4718C3.33333 17.5051 6.31833 18.3434 10 18.3434C13.6817 18.3434 16.6667 17.5051 16.6667 16.4718C16.6667 15.8801 15.6908 15.3534 14.1667 15.0101M12.0833 7.51009C12.0833 8.06263 11.8638 8.59253 11.4731 8.98323C11.0824 9.37393 10.5525 9.59342 10 9.59342C9.44746 9.59342 8.91756 9.37393 8.52686 8.98323C8.13616 8.59253 7.91666 8.06263 7.91666 7.51009C7.91666 6.95756 8.13616 6.42765 8.52686 6.03695C8.91756 5.64625 9.44746 5.42676 10 5.42676C10.5525 5.42676 11.0824 5.64625 11.4731 6.03695C11.8638 6.42765 12.0833 6.95756 12.0833 7.51009Z" stroke="black" stroke-width="1.5" stroke-linecap="round" stroke-linejoin="round"/>
<path d="M11.0475 14.5884C10.766 14.8592 10.3906 15.0105 9.99999 15.0105C9.60939 15.0105 9.23397 14.8592 8.95249 14.5884C6.37833 12.0943 2.92916 9.30842 4.61083 5.26342C5.52166 3.07592 7.70499 1.67676 9.99999 1.67676C12.295 1.67676 14.4792 3.07676 15.3892 5.26342C17.0692 9.30259 13.6283 12.1026 11.0475 14.5884Z" stroke="black" stroke-width="1.5" stroke-linecap="round" stroke-linejoin="round"/>
</g>
<defs>
<clipPath id="clip0_72_571">
<rect width="20" height="20" fill="white" transform="translate(0 0.00976562)"/>
</clipPath>
</defs>
</svg>
