<svg width="24" height="24" viewBox="0 0 24 24" fill="none" xmlns="http://www.w3.org/2000/svg">
<path d="M8.5 14.0098C8.83152 14.0098 9.14946 13.8781 9.38388 13.6436C9.6183 13.4092 9.75 13.0913 9.75 12.7598C9.75 12.4282 9.6183 12.1103 9.38388 11.8759C9.14946 11.6415 8.83152 11.5098 8.5 11.5098C8.16848 11.5098 7.85054 11.6415 7.61612 11.8759C7.3817 12.1103 7.25 12.4282 7.25 12.7598C7.25 13.0913 7.3817 13.4092 7.61612 13.6436C7.85054 13.8781 8.16848 14.0098 8.5 14.0098ZM8.5 17.5098C8.83152 17.5098 9.14946 17.3781 9.38388 17.1437C9.6183 16.9092 9.75 16.5913 9.75 16.2598C9.75 15.9282 9.6183 15.6103 9.38388 15.3759C9.14946 15.1415 8.83152 15.0098 8.5 15.0098C8.16848 15.0098 7.85054 15.1415 7.61612 15.3759C7.3817 15.6103 7.25 15.9282 7.25 16.2598C7.25 16.5913 7.3817 16.9092 7.61612 17.1437C7.85054 17.3781 8.16848 17.5098 8.5 17.5098ZM13.25 12.7598C13.25 13.0913 13.1183 13.4092 12.8839 13.6436C12.6495 13.8781 12.3315 14.0098 12 14.0098C11.6685 14.0098 11.3505 13.8781 11.1161 13.6436C10.8817 13.4092 10.75 13.0913 10.75 12.7598C10.75 12.4282 10.8817 12.1103 11.1161 11.8759C11.3505 11.6415 11.6685 11.5098 12 11.5098C12.3315 11.5098 12.6495 11.6415 12.8839 11.8759C13.1183 12.1103 13.25 12.4282 13.25 12.7598ZM12 17.5098C12.3315 17.5098 12.6495 17.3781 12.8839 17.1437C13.1183 16.9092 13.25 16.5913 13.25 16.2598C13.25 15.9282 13.1183 15.6103 12.8839 15.3759C12.6495 15.1415 12.3315 15.0098 12 15.0098C11.6685 15.0098 11.3505 15.1415 11.1161 15.3759C10.8817 15.6103 10.75 15.9282 10.75 16.2598C10.75 16.5913 10.8817 16.9092 11.1161 17.1437C11.3505 17.3781 11.6685 17.5098 12 17.5098ZM16.75 12.7598C16.75 13.0913 16.6183 13.4092 16.3839 13.6436C16.1495 13.8781 15.8315 14.0098 15.5 14.0098C15.1685 14.0098 14.8505 13.8781 14.6161 13.6436C14.3817 13.4092 14.25 13.0913 14.25 12.7598C14.25 12.4282 14.3817 12.1103 14.6161 11.8759C14.8505 11.6415 15.1685 11.5098 15.5 11.5098C15.8315 11.5098 16.1495 11.6415 16.3839 11.8759C16.6183 12.1103 16.75 12.4282 16.75 12.7598Z" fill="black"/>
<path fill-rule="evenodd" clip-rule="evenodd" d="M8 3.25977C8.19891 3.25977 8.38968 3.33878 8.53033 3.47944C8.67098 3.62009 8.75 3.81085 8.75 4.00977V4.75977H15.25V4.00977C15.25 3.81085 15.329 3.62009 15.4697 3.47944C15.6103 3.33878 15.8011 3.25977 16 3.25977C16.1989 3.25977 16.3897 3.33878 16.5303 3.47944C16.671 3.62009 16.75 3.81085 16.75 4.00977V4.76777C16.902 4.77177 17.0437 4.7791 17.175 4.78977C17.555 4.81977 17.911 4.88777 18.248 5.05977C18.7656 5.32344 19.1863 5.74421 19.45 6.26177C19.622 6.59877 19.69 6.95477 19.72 7.33477C19.75 7.69977 19.75 8.14477 19.75 8.67977V16.3398C19.75 16.8748 19.75 17.3198 19.72 17.6848C19.69 18.0648 19.622 18.4208 19.45 18.7578C19.1866 19.2752 18.7662 19.6959 18.249 19.9598C17.911 20.1318 17.555 20.1998 17.175 20.2298C16.81 20.2598 16.365 20.2598 15.831 20.2598H8.17C7.635 20.2598 7.19 20.2598 6.825 20.2298C6.445 20.1998 6.089 20.1318 5.752 19.9598C5.23475 19.6966 4.81401 19.2766 4.55 18.7598C4.378 18.4218 4.31 18.0658 4.28 17.6858C4.25 17.3208 4.25 16.8758 4.25 16.3418V8.67977C4.25 8.14477 4.25 7.69977 4.28 7.33477C4.31 6.95477 4.378 6.59877 4.55 6.26177C4.81367 5.74421 5.23445 5.32344 5.752 5.05977C6.089 4.88777 6.445 4.81977 6.825 4.78977C6.95633 4.7791 7.098 4.77177 7.25 4.76777V4.00977C7.25 3.91127 7.2694 3.81375 7.30709 3.72275C7.34478 3.63176 7.40003 3.54908 7.46967 3.47944C7.53931 3.40979 7.62199 3.35455 7.71299 3.31686C7.80398 3.27916 7.90151 3.25977 8 3.25977ZM18.25 10.2598H5.75V16.3098C5.75 16.8818 5.75 17.2668 5.775 17.5618C5.798 17.8498 5.84 17.9868 5.886 18.0768C6.006 18.3128 6.197 18.5038 6.433 18.6238C6.523 18.6698 6.66 18.7118 6.947 18.7348C7.243 18.7588 7.627 18.7598 8.2 18.7598H15.8C16.372 18.7598 16.757 18.7598 17.052 18.7348C17.34 18.7118 17.477 18.6698 17.567 18.6238C17.8026 18.5039 17.9941 18.3124 18.114 18.0768C18.16 17.9868 18.202 17.8498 18.225 17.5618C18.249 17.2668 18.25 16.8818 18.25 16.3098V10.2598ZM10.5 7.00977C10.3011 7.00977 10.1103 7.08878 9.96967 7.22944C9.82902 7.37009 9.75 7.56085 9.75 7.75977C9.75 7.95868 9.82902 8.14944 9.96967 8.2901C10.1103 8.43075 10.3011 8.50977 10.5 8.50977H13.5C13.6989 8.50977 13.8897 8.43075 14.0303 8.2901C14.171 8.14944 14.25 7.95868 14.25 7.75977C14.25 7.56085 14.171 7.37009 14.0303 7.22944C13.8897 7.08878 13.6989 7.00977 13.5 7.00977H10.5Z" fill="black"/>
</svg>
